<?xml version="1.0" standalone="no"?>
<!DOCTYPE svg PUBLIC "-//W3C//DTD SVG 20010904//EN" "http://www.w3.org/TR/2001/REC-SVG-20010904/DTD/svg10.dtd">
<svg
    version="1.0"
    xmlns="http://www.w3.org/2000/svg"
    width="834.000000pt"
    height="865.000000pt"
    viewBox="0 0 834.000000 865.000000"
    preserveAspectRatio="xMidYMid meet"
>

    <metadata>
         Created by potrace 1.16, written by Peter Selinger 2001-2019
    </metadata>

    <g
        transform="translate(0.000000,865.000000) scale(0.100000,-0.100000)"
        stroke="none"
    >

        <path
            d="M1807 8629 c-347 -40 -680 -192 -940 -430 -252 -230 -436 -553 -508
-887 -27 -128 -36 -367 -19 -510 27 -234 110 -476 233 -682 l45 -75 -49 -17
c-102 -35 -173 -82 -264 -173 -76 -75 -98 -105 -138 -185 -58 -116 -76 -186
-84 -311 -16 -272 93 -551 318 -810 l50 -57 -68 -85 c-168 -209 -291 -475
-353 -763 -34 -154 -39 -477 -11 -641 107 -631 558 -1149 1181 -1357 107 -35
285 -76 337 -76 51 0 56 -10 37 -76 -24 -88 -29 -253 -10 -344 48 -227 228
-422 458 -495 42 -13 106 -27 142 -31 l66 -7 0 -41 c1 -189 154 -418 340 -510
244 -119 538 -72 848 135 98 65 274 215 292 249 10 18 18 15 152 -50 177 -87
258 -114 423 -141 165 -28 383 -30 498 -5 233 51 462 162 696 338 l103 78 37
-29 c51 -40 146 -86 222 -108 50 -14 99 -17 224 -17 139 1 173 4 257 27 365
97 598 344 648 686 l12 78 97 6 c188 10 377 96 521 237 128 126 206 270 235
434 20 116 19 160 -6 302 -28 165 -28 165 130 322 71 70 146 154 168 187 88
131 155 293 190 458 21 99 23 342 5 432 -69 325 -256 597 -540 785 l-23 15 35
86 c76 187 101 345 93 578 -8 230 -49 403 -143 597 -90 186 -203 324 -395 480
-155 127 -166 145 -209 359 -17 83 -42 186 -56 230 -65 201 -195 401 -317 491
-137 102 -214 124 -423 124 -218 1 -236 12 -399 261 -109 165 -221 281 -362
373 -167 109 -341 178 -537 211 -115 19 -355 22 -461 5 -231 -36 -458 -132
-612 -257 -51 -41 -58 -45 -77 -33 -93 58 -377 215 -505 280 -394 197 -751
314 -1081 355 -130 16 -385 18 -503 4z m3496 -2815 c160 -372 490 -629 901
-700 69 -12 129 -15 251 -11 88 3 172 9 188 13 l27 6 0 -103 c0 -57 4 -165 10
-239 5 -74 14 -202 20 -285 11 -160 22 -224 39 -234 8 -5 8 -57 1 -172 -5 -90
-14 -252 -20 -360 -11 -196 -37 -474 -65 -689 -8 -63 -16 -131 -16 -150 -5
-107 -71 -531 -110 -705 -30 -132 -77 -290 -103 -349 -25 -55 -140 -211 -294
-395 -123 -148 -492 -521 -516 -521 -40 0 -85 -32 -105 -74 -44 -95 -406 -325
-631 -401 -249 -85 -551 -70 -826 40 -244 98 -612 327 -883 548 -285 233 -551
527 -651 719 -46 87 -59 142 -119 483 -97 551 -145 953 -166 1385 -21 450 -44
798 -61 943 -9 71 -14 130 -12 132 1 1 35 -2 73 -7 113 -15 397 -12 535 6 544
72 978 203 1414 429 271 140 460 273 648 456 153 148 273 296 362 447 l28 48
23 -89 c13 -50 39 -126 58 -171z"
        />

    </g>

    <style>
        g { fill: #000; }
        @media (prefers-color-scheme: dark) {
            g { fill: #fff; }
        }
    </style>
</svg>
