<?xml version="1.0" standalone="no"?>
<!DOCTYPE svg PUBLIC "-//W3C//DTD SVG 20010904//EN" "http://www.w3.org/TR/2001/REC-SVG-20010904/DTD/svg10.dtd">
 <svg
    version="1.0"
    xmlns="http://www.w3.org/2000/svg"
    width="834.000000pt"
    height="865.000000pt"
    viewBox="0 0 834.000000 865.000000"
    preserveAspectRatio="xMidYMid meet"
>

    <metadata>
         Created by potrace 1.16, written by Peter Selinger 2001-2019
    </metadata>

    <g
        transform="translate(0.000000,865.000000) scale(0.100000,-0.100000)"
        fill="currentColor"
        stroke="none"
    >

        <path
            d="M1807 8629 c-347 -40 -680 -192 -940 -430 -252 -230 -436 -553 -508
-887 -27 -128 -36 -367 -19 -510 27 -234 110 -476 233 -682 l45 -75 -49 -17
c-102 -35 -173 -82 -264 -173 -76 -75 -98 -105 -138 -185 -58 -116 -76 -186
-84 -311 -16 -272 93 -551 318 -810 l50 -57 -68 -85 c-168 -209 -291 -475
-353 -763 -34 -154 -39 -477 -11 -641 107 -631 558 -1149 1181 -1357 107 -35
285 -76 337 -76 51 0 56 -10 37 -76 -24 -88 -29 -253 -10 -344 48 -227 228
-422 458 -495 42 -13 106 -27 142 -31 l66 -7 0 -41 c1 -189 154 -418 340 -510
244 -119 538 -72 848 135 98 65 274 215 292 249 10 18 18 15 152 -50 177 -87
258 -114 423 -141 165 -28 383 -30 498 -5 233 51 462 162 696 338 l103 78 37
-29 c51 -40 146 -86 222 -108 50 -14 99 -17 224 -17 139 1 173 4 257 27 365
97 598 344 648 686 l12 78 97 6 c188 10 377 96 521 237 128 126 206 270 235
434 20 116 19 160 -6 302 -28 165 -28 165 130 322 71 70 146 154 168 187 88
131 155 293 190 458 21 99 23 342 5 432 -69 325 -256 597 -540 785 l-23 15 35
86 c76 187 101 345 93 578 -8 230 -49 403 -143 597 -90 186 -203 324 -395 480
-155 127 -166 145 -209 359 -17 83 -42 186 -56 230 -65 201 -195 401 -317 491
-137 102 -214 124 -423 124 -218 1 -236 12 -399 261 -109 165 -221 281 -362
373 -167 109 -341 178 -537 211 -115 19 -355 22 -461 5 -231 -36 -458 -132
-612 -257 -51 -41 -58 -45 -77 -33 -93 58 -377 215 -505 280 -394 197 -751
314 -1081 355 -130 16 -385 18 -503 4z m3496 -2815 c160 -372 490 -629 901
-700 69 -12 129 -15 251 -11 88 3 172 9 186 12 l26 7 6 -179 c11 -311 38 -638
57 -674 6 -10 10 -60 10 -112 l0 -95 -62 5 c-35 3 -90 0 -122 -5 -44 -7 -71
-6 -110 5 -40 11 -138 14 -441 14 -386 0 -592 -7 -959 -36 -169 -14 -191 -14
-206 0 -20 18 -60 19 -84 2 -19 -14 -35 -77 -36 -144 0 -72 -2 -73 -78 -50
-51 15 -98 20 -197 20 -126 1 -171 -7 -266 -47 -12 -5 -19 6 -34 55 -24 77
-66 142 -112 170 -29 18 -59 24 -172 31 -204 14 -1308 14 -1486 0 -82 -6 -151
-10 -153 -8 -1 2 -10 92 -18 199 -8 107 -21 246 -28 309 -8 62 -14 114 -13
114 1 1 34 -3 72 -8 113 -15 397 -12 535 6 544 72 978 203 1414 429 271 140
460 273 648 456 153 148 273 296 362 447 l28 48 23 -89 c13 -50 39 -126 58
-171z m-2018 -1795 c562 -22 669 -32 709 -67 69 -62 118 -310 96 -488 -27
-223 -113 -408 -258 -557 -118 -121 -237 -194 -399 -244 -81 -25 -101 -27
-263 -27 -162 0 -182 2 -263 27 -255 79 -417 227 -562 516 -86 170 -92 193
-104 426 -6 116 -14 256 -17 313 -3 56 -4 103 -2 104 1 0 75 4 163 8 181 8
532 4 900 -11z m3125 -36 c40 -13 85 -18 170 -18 l115 0 16 -62 c18 -66 18
-74 -17 -513 -15 -190 -19 -210 -49 -281 -111 -260 -290 -416 -553 -481 -73
-19 -116 -22 -267 -23 -153 0 -195 3 -285 23 -344 77 -523 221 -615 492 -64
187 -90 419 -80 687 l7 172 52 6 c140 16 460 23 931 20 471 -3 525 -5 575 -22z
m-1845 -207 c28 -8 71 -22 96 -32 l46 -17 6 -147 c16 -364 106 -639 264 -811
167 -181 474 -289 818 -289 355 0 632 113 789 322 28 37 52 65 54 63 9 -9 -73
-519 -109 -680 -30 -132 -77 -290 -103 -349 -25 -55 -140 -211 -294 -395 -123
-148 -492 -521 -516 -521 -40 0 -85 -32 -105 -74 -44 -95 -406 -325 -631 -401
-196 -67 -432 -72 -661 -15 -395 100 -1066 554 -1443 978 -224 251 -291 368
-331 579 -60 319 -155 926 -155 996 0 6 22 -22 49 -60 109 -155 220 -251 373
-323 351 -164 799 -110 1103 134 263 210 414 580 376 921 -6 53 -9 100 -6 105
3 4 38 14 78 20 39 6 79 13 87 15 28 7 165 -5 215 -19z"
        />

        <path
            d="M3040 4590 c-161 -16 -351 -81 -505 -173 -105 -62 -205 -152 -205
-185 0 -34 30 -28 133 27 197 106 417 157 637 148 151 -7 233 -22 462 -86 223
-62 315 -78 368 -62 106 31 106 157 1 228 -122 82 -574 134 -891 103z"
        />

        <path
            d="M5364 4535 c-309 -39 -409 -86 -421 -197 -4 -37 -1 -49 20 -74 25
-29 26 -29 129 -28 102 1 117 3 463 79 86 20 161 28 265 32 214 8 336 -19 619
-136 68 -28 129 -50 135 -47 22 8 -167 180 -248 225 -95 54 -268 114 -391 136
-125 23 -429 28 -571 10z"
        />

        <path
            d="M3078 3840 c-61 -11 -142 -37 -193 -63 -118 -59 -267 -189 -386 -337
-90 -110 -91 -133 -16 -188 248 -185 591 -291 843 -262 189 22 319 77 467 197
83 69 117 108 117 137 0 32 -89 155 -182 252 -77 80 -182 161 -263 202 -107
54 -280 82 -387 62z m-142 -204 c-53 -69 -71 -128 -71 -226 1 -96 26 -166 84
-233 l32 -36 -68 23 c-108 37 -333 155 -333 176 0 16 148 176 203 220 48 38
173 120 184 120 1 0 -12 -20 -31 -44z m742 -190 c30 -33 63 -73 73 -88 l20
-27 -67 -55 c-56 -46 -194 -126 -218 -126 -4 0 7 17 23 38 80 100 101 236 54
358 -10 28 49 -24 115 -100z"
        />

        <path
            d="M5563 3836 c-217 -41 -430 -230 -552 -490 -49 -104 -50 -97 31 -144
172 -98 337 -164 496 -198 116 -25 324 -23 427 5 192 51 357 161 462 309 l47
65 -122 118 c-277 268 -543 381 -789 335z m-130 -209 c-72 -76 -96 -145 -91
-262 4 -73 9 -100 31 -142 15 -29 25 -53 23 -53 -10 0 -174 73 -218 97 -26 14
-48 31 -48 38 0 28 124 197 193 262 62 58 133 110 156 113 2 0 -19 -24 -46
-53z m647 -58 c65 -43 230 -186 230 -198 0 -5 -34 -40 -75 -79 -51 -48 -101
-83 -160 -112 -47 -23 -88 -40 -91 -37 -3 2 6 21 20 41 43 63 59 129 54 220
-5 88 -34 163 -86 220 l-27 29 40 -23 c22 -13 65 -40 95 -61z"
        />

        <path
            d="M4412 2489 c-146 -28 -382 -210 -382 -294 0 -39 16 -55 55 -55 24 0
46 15 110 78 93 90 150 126 236 148 101 26 205 -3 301 -83 63 -52 82 -59 113
-39 19 12 25 25 25 50 0 28 -8 42 -45 74 -118 104 -272 149 -413 121z"
        />

        <path
            d="M4703 1991 c-75 -26 -127 -64 -180 -131 l-46 -59 -45 39 c-78 69
-142 93 -258 98 -71 3 -119 -1 -165 -12 -82 -21 -228 -92 -309 -152 l-64 -47
-61 32 c-51 28 -64 31 -87 22 -38 -14 -47 -55 -21 -89 11 -15 60 -47 109 -72
82 -41 95 -52 159 -133 99 -124 284 -302 388 -371 322 -214 630 -192 911 65
92 84 217 255 289 395 12 23 33 38 81 59 77 33 100 67 72 110 -21 32 -60 33
-121 3 l-45 -22 -58 55 c-200 194 -388 266 -549 210z m259 -149 c71 -36 208
-137 216 -160 3 -9 -125 -51 -243 -81 -286 -72 -599 -79 -875 -19 -107 22
-277 75 -284 87 -8 13 144 98 226 125 174 59 309 21 415 -116 34 -45 50 -58
71 -58 40 0 48 8 87 87 39 79 115 156 169 173 60 18 130 6 218 -38z m147 -379
c-63 -95 -214 -246 -290 -291 -74 -43 -158 -72 -234 -79 -127 -12 -300 51
-446 162 -66 51 -245 222 -238 229 2 2 50 -7 107 -19 56 -13 142 -28 190 -34
125 -16 392 -13 524 4 114 15 319 61 393 89 22 8 41 15 43 15 1 1 -21 -34 -49
-76z"
        />

    </g>
</svg>
