<svg width="217" height="218" viewBox="0 0 217 218" fill="none" xmlns="http://www.w3.org/2000/svg">
<path fill-rule="evenodd" clip-rule="evenodd" d="M105.94 25.61L87.65 43.9L87.66 43.91L85.21 46.36C84.95 46.62 84.61 46.76 84.25 46.76C83.5 46.76 82.89 46.15 82.89 45.4V24.76C82.89 23.1 83.55 21.51 84.72 20.34L101.04 4.01997C102.83 2.21999 105.11 1.23 107.45 1.01997C107.88 0.979996 108.3 0.979996 108.73 1.01997C111.07 1.23 113.35 2.23 115.14 4.01997L131.45 20.35C132.62 21.52 133.28 23.11 133.28 24.77V45.41C133.28 46.15 132.68 46.76 131.93 46.76C131.57 46.76 131.22 46.61 130.97 46.36L122.88 38.27L110.22 25.61C109.62 25.01 108.86 24.68 108.08 24.61C107.3 24.68 106.54 25.01 105.94 25.61ZM213.14 102.02C214.94 103.82 215.93 106.1 216.14 108.44L216.13 108.42C216.17 108.85 216.17 109.27 216.13 109.7C215.92 112.04 214.92 114.32 213.13 116.11L196.81 132.43C195.64 133.6 194.05 134.26 192.39 134.26H171.75C171.01 134.26 170.4 133.66 170.4 132.91C170.4 132.55 170.55 132.2 170.8 131.95L178.89 123.86L191.55 111.2C192.15 110.6 192.48 109.84 192.55 109.06C192.48 108.28 192.15 107.52 191.55 106.92L173.26 88.63L170.81 86.18C170.55 85.92 170.41 85.58 170.41 85.22C170.41 84.48 171.01 83.87 171.76 83.87H192.4C194.06 83.87 195.65 84.53 196.82 85.7L213.14 102.02ZM93.14 109.08C93.14 100.81 99.84 94.11 108.11 94.11C116.38 94.11 123.08 100.81 123.08 109.08C123.08 117.35 116.38 124.05 108.11 124.05C99.84 124.05 93.14 117.35 93.14 109.08ZM45.76 132.93C45.76 132.57 45.62 132.22 45.36 131.97L24.61 111.22C24.01 110.62 23.68 109.86 23.61 109.08C23.68 108.3 24.01 107.54 24.61 106.94L42.9 88.65L45.35 86.2C45.6 85.95 45.75 85.6 45.75 85.24C45.75 84.49 45.14 83.88 44.39 83.88H23.76C22.1 83.88 20.51 84.54 19.34 85.71L3.03003 102.03C1.23999 103.82 0.23999 106.1 0.0300293 108.44C-0.0100098 108.87 -0.0100098 109.29 0.0300293 109.72C0.23999 112.06 1.22998 114.34 3.03003 116.14L19.35 132.46C20.52 133.63 22.11 134.29 23.77 134.29H44.4C45.15 134.29 45.76 133.68 45.76 132.93ZM122.9 179.88L110.24 192.54C109.64 193.14 108.88 193.47 108.1 193.54C107.32 193.47 106.56 193.14 105.96 192.54L85.21 171.79C84.96 171.54 84.61 171.39 84.25 171.39C83.5 171.39 82.9 172 82.9 172.74V193.38C82.9 195.04 83.56 196.62 84.73 197.79L101.05 214.11C102.84 215.9 105.12 216.9 107.46 217.11C107.89 217.15 108.31 217.15 108.74 217.11C111.08 216.9 113.36 215.91 115.15 214.11L131.47 197.79C132.64 196.62 133.3 195.03 133.3 193.37V172.73C133.3 171.98 132.69 171.38 131.95 171.38C131.59 171.38 131.25 171.52 130.99 171.78L122.9 179.87V179.88ZM165.59 48.54H139.72L139.73 48.55H136.26C135.9 48.55 135.55 48.4 135.3 48.15C134.77 47.62 134.77 46.76 135.3 46.23L149.89 31.64C151.06 30.47 152.65 29.81 154.31 29.81H177.39C179.92 29.81 182.24 30.72 184.04 32.23C184.36 32.5 184.66 32.8 184.94 33.13C186.45 34.93 187.36 37.25 187.36 39.78V62.86C187.36 64.52 186.7 66.11 185.53 67.28L170.94 81.87C170.41 82.4 169.55 82.4 169.02 81.87C168.76 81.61 168.62 81.27 168.62 80.91V51.57C168.62 50.73 168.31 49.95 167.81 49.35C167.21 48.84 166.44 48.54 165.59 48.54ZM68.49 169.62H50.58C49.73 169.62 48.95 169.32 48.36 168.81C47.86 168.2 47.55 167.43 47.55 166.58V137.24C47.55 136.88 47.41 136.54 47.15 136.28C46.62 135.75 45.76 135.75 45.23 136.28L30.64 150.87C29.47 152.04 28.81 153.63 28.81 155.28V178.36C28.81 180.89 29.72 183.21 31.23 185.01C31.51 185.34 31.81 185.64 32.13 185.91C33.93 187.42 36.25 188.33 38.78 188.33H61.86C63.52 188.33 65.1 187.67 66.27 186.5L80.86 171.91C81.39 171.38 81.39 170.52 80.86 169.99C80.61 169.74 80.26 169.59 79.9 169.59H68.47L68.49 169.62ZM45.24 81.87L30.65 67.28V67.27C29.48 66.1 28.82 64.51 28.82 62.85V39.77C28.82 37.24 29.73 34.92 31.24 33.12C31.51 32.8 31.81 32.5 32.14 32.22C33.94 30.71 36.26 29.8 38.79 29.8H61.87C63.53 29.8 65.12 30.46 66.29 31.63L80.88 46.22C81.41 46.75 81.41 47.61 80.88 48.14C80.62 48.4 80.28 48.54 79.92 48.54H50.59C49.75 48.54 48.97 48.85 48.37 49.35C47.86 49.94 47.56 50.72 47.56 51.57V80.91C47.56 81.27 47.41 81.62 47.16 81.87C46.63 82.4 45.77 82.4 45.24 81.87ZM166.45 84.27C166.2 84.02 165.85 83.88 165.49 83.88L136.24 83.97C135.39 83.97 134.62 83.67 134.02 83.16C133.52 82.56 133.21 81.78 133.21 80.94L133.3 51.73C133.3 51.35 133.15 50.98 132.88 50.71C132.32 50.15 131.41 50.15 130.85 50.71L110.25 71.43C109.65 72.03 108.89 72.36 108.11 72.43C107.33 72.36 106.57 72.03 105.97 71.43L85.37 50.71C84.81 50.15 83.9 50.14 83.34 50.71C83.07 50.98 82.92 51.35 82.92 51.73L83.01 80.94C83.01 81.79 82.71 82.57 82.2 83.16C81.6 83.66 80.82 83.97 79.98 83.97L50.73 83.88C50.37 83.88 50.02 84.02 49.77 84.28L49.69 84.36C49.16 84.89 49.16 85.75 49.69 86.28L70.47 106.93C71.07 107.53 71.4 108.29 71.47 109.07C71.4 109.85 71.07 110.61 70.47 111.21L49.73 131.83C49.47 132.08 49.33 132.43 49.33 132.79V132.91C49.33 133.66 49.94 134.27 50.69 134.26L79.99 134.17C80.84 134.17 81.62 134.47 82.21 134.98C82.71 135.59 83.02 136.36 83.02 137.21L82.93 166.46C82.93 166.82 83.07 167.17 83.33 167.42L83.41 167.5C83.94 168.03 84.8 168.03 85.33 167.5L105.98 146.72C106.58 146.12 107.34 145.79 108.12 145.72C108.9 145.79 109.66 146.12 110.26 146.72L130.88 167.46C131.13 167.72 131.48 167.86 131.84 167.86H131.96C132.71 167.86 133.32 167.25 133.31 166.5L133.22 137.2C133.22 136.35 133.52 135.58 134.03 134.98C134.63 134.48 135.41 134.17 136.25 134.17L165.55 134.26C166.3 134.26 166.91 133.66 166.91 132.91V132.79C166.91 132.43 166.77 132.09 166.51 131.83L159.42 124.74C159.18 124.5 158.91 124.29 158.64 124.09L145.76 111.21C145.16 110.61 144.83 109.85 144.76 109.07C144.83 108.29 145.16 107.53 145.76 106.93L166.53 86.28C167.06 85.75 167.06 84.88 166.53 84.35L166.45 84.27ZM134.73 116.13L141.53 122.93H131.91C129.29 122.93 126.91 123.91 125.08 125.5C124.88 125.67 124.69 125.86 124.52 126.06C122.92 127.89 121.95 130.28 121.95 132.89V142.51L115.15 135.71C113.3 133.86 110.92 132.86 108.5 132.7C108.24 132.68 107.97 132.68 107.71 132.7C105.29 132.86 102.91 133.86 101.06 135.71L94.26 142.51V132.89C94.26 130.27 93.28 127.89 91.68 126.06C91.51 125.86 91.32 125.67 91.12 125.5C89.29 123.9 86.9 122.93 84.28 122.93H74.66L81.46 116.13C83.31 114.28 84.31 111.9 84.47 109.48C84.4748 109.418 84.4785 109.355 84.4809 109.292C84.4822 109.26 84.4832 109.228 84.4838 109.195C84.4874 109.026 84.4828 108.856 84.47 108.69C84.31 106.27 83.31 103.89 81.46 102.04L74.66 95.24H84.28C86.9 95.24 89.29 94.26 91.12 92.66C91.32 92.49 91.51 92.3 91.68 92.1C93.28 90.27 94.26 87.88 94.26 85.26V75.64L101.06 82.44C102.91 84.29 105.29 85.29 107.71 85.45C107.97 85.47 108.24 85.47 108.5 85.45C110.92 85.29 113.3 84.29 115.15 82.44L121.95 75.64V85.26C121.95 87.88 122.93 90.27 124.52 92.1C124.69 92.3 124.88 92.49 125.08 92.66C126.91 94.26 129.3 95.24 131.91 95.24H141.53L134.73 102.04C132.88 103.89 131.88 106.27 131.72 108.69C131.713 108.778 131.709 108.868 131.707 108.958C131.702 109.132 131.707 109.308 131.72 109.48C131.88 111.9 132.88 114.28 134.73 116.13ZM170.94 136.29L185.53 150.88L185.52 150.9C186.69 152.08 187.35 153.66 187.35 155.32V178.4C187.35 180.93 186.44 183.25 184.93 185.05C184.66 185.37 184.36 185.68 184.03 185.95C182.23 187.46 179.91 188.37 177.38 188.37H154.3C152.64 188.37 151.05 187.71 149.88 186.54L135.29 171.95C134.76 171.42 134.76 170.56 135.29 170.03C135.55 169.77 135.89 169.63 136.25 169.63H165.59C166.43 169.63 167.21 169.32 167.81 168.82C168.32 168.21 168.62 167.44 168.62 166.59V137.25C168.62 136.89 168.77 136.54 169.02 136.29C169.55 135.76 170.41 135.76 170.94 136.29Z" fill="#EE264D"/>
</svg>
